<svg id="Layer_1" data-name="Layer 1" xmlns="http://www.w3.org/2000/svg" width="404.06" height="54.39" viewBox="0 0 404.06 54.39"><title>Hyosung logo - Brandlogos.net</title><path d="M392.58,380.58h0c-2.26-1.19-5.07-2.51-8.39-3.93-.27-.13-.58-.27-1-.43-1-.4-1.93-.73-2.74-1a29,29,0,0,1-4.19-1.77l-.23-.1-.11,0a33.74,33.74,0,0,1-3.09-1.89,4.9,4.9,0,0,1-1.78-3.56c0-3.58,5.38-6.84,11.28-6.84a13.46,13.46,0,0,1,1.36.07l.29,0h.09c5,.62,9.11,4.42,10.57,6.57a10,10,0,0,1,1.56,2.8h2.5V356.8l-2.52.06s-1.44,2.43-1.92,2.43a11.16,11.16,0,0,1-3-.56,32,32,0,0,0-9.88-1.72c-6.15,0-12.17,1.59-15.72,4.14-3.8,2.73-5.72,6.23-5.72,10.39,0,3.06,1.29,6,4,9.1,2.17,2.51,6.76,5.15,14.43,8.32,5.93,2.5,9.48,4.18,10.52,5a5.44,5.44,0,0,1,2.08,4.49,7.36,7.36,0,0,1-3.25,6c-1.92,1.37-4.7,2-8.51,2a18.8,18.8,0,0,1-10.09-3,14.21,14.21,0,0,1-5.17-5.91l-.17-.34c-.19-.37-.53-1.09-.83-1.73a1.1,1.1,0,0,0-.2-.48l0-.08v0h0l-.32-.7-2.5.06v15.84h2.6s.12-.32.32-.74a1,1,0,0,0,.07-.14,5.33,5.33,0,0,1,.95-1.36,1.5,1.5,0,0,1,1-.34,3.67,3.67,0,0,1,.38.09c2,.58,3.9,1.08,5.71,1.5A44.58,44.58,0,0,0,381.29,411a29.48,29.48,0,0,0,15.91-4.72,14.1,14.1,0,0,0,6.22-9.43c.11-.49.22-1,.3-1.62,1.39-9.86-11-14.58-11.14-14.63" transform="translate(-181.97 -356.8)" style="fill:#2f2c83"/><path d="M296.41,358.37H281.22V361c.33,0,.69,0,1.1,0,2.21,0,2.21.94,2.21,1.25,0,.76-1.58,3.61-3.77,7.56l-2,3.75c-1.85,3.46-3,5.65-4.29,7.58-2.62-4.18-4.25-6.77-6.23-10.06-1.39-2.34-2.45-3.93-3.15-5-.47-.72-.78-1.18-.94-1.48a4.84,4.84,0,0,1-.57-2.19c0-.65.28-1.3,3.65-1.39l.89,0v-2.59h-23.4v2.83c1.83,0,3.13.42,3.83,1.15.91,1.32,1.76,2.52,2.56,3.63,1.89,2.66,3.39,4.76,4.57,6.82a113.39,113.39,0,0,1,8.48,15.28V404.5c0,1.07-.14,1.19-.49,1.47l-.06.07c-.1.14-.73.6-4.64.76v3h23.93v-3.07a14.61,14.61,0,0,1-4-.45,1.27,1.27,0,0,1-1-1.3v-13.4a20.82,20.82,0,0,1,.5-5.57,42.52,42.52,0,0,1,3.48-7.12c1.62-2.87,2.86-5.11,3.68-6.66,5.22-9.79,6.36-10.22,6.41-10.24L292,362c.36-.27,1.43-.64,4.39-.85Z" transform="translate(-181.97 -356.8)" style="fill:#2f2c83"/><path d="M443.74,358.47V361l.3,0c.3,0,.62,0,1,0,2,0,5.09.92,5.51,2.38V390.8c0,9.1-1.12,10.3-3.09,12.48l-.41.45c-1.65,1.87-4.93,2.9-9.23,2.9a12.86,12.86,0,0,1-8.28-2.53c-1.67-1.34-2.72-3.54-3.11-6.57a61.24,61.24,0,0,1-.26-7.38V363.52a2.87,2.87,0,0,1,.41-1.18c.23-.32.9-.7,2.83-.76l.72,0,.33,0h.31v-3h-24v2.62a17.09,17.09,0,0,1,4.34.45,1.78,1.78,0,0,1,1.21,1.57v.18a1.36,1.36,0,0,1,0,.2v28.12c0,6.55,1.45,11.2,4.31,13.81,3.86,3.54,9.16,4.64,15.91,5.2,1.28.11,2.57.16,3.86.16a36.17,36.17,0,0,0,12.78-2c6.18-2.54,8.93-7.33,8.93-15.56V363.41a2.65,2.65,0,0,1,.52-1.6c.28-.32,1.59-.7,3.87-.86a.89.89,0,0,0,.38-.07H463l.29,0v-2.35Z" transform="translate(-181.97 -356.8)" style="fill:#2f2c83"/><path d="M525.24,358.08H510.32v2.54h.85a4.33,4.33,0,0,1,3.08,1,6.37,6.37,0,0,1,.08,1.18v25.82l-29.65-30.18H466.75v2.83l1.7.15.25,0a4.94,4.94,0,0,1,3.88,4.33,8.57,8.57,0,0,1,.11,1.2c0,1,.07,2.4.07,4.13l0,31c0,.38,0,2.19,0,2.19a1.77,1.77,0,0,1-.65,1.27l-.17.11a17.1,17.1,0,0,1-5.14.87v2.7h16.35V406.7h-.84a4.34,4.34,0,0,1-3.08-1,5.9,5.9,0,0,1-.08-1.18V371l37.73,38.29h3.4V363a1.8,1.8,0,0,1,.65-1.27l.18-.11a10.07,10.07,0,0,1,4.19-.87Z" transform="translate(-181.97 -356.8)" style="fill:#2f2c83"/><path d="M241,407.07a9,9,0,0,1-4.06-1c-.91-.62-1.29-2-1.29-4.81V365.84c0-2.42.27-3.21.71-3.7s1.24-.84,3.8-1l.85-.07v-2.68H218v2.81h.8c2.68,0,4,1.5,4,4.58v13.74c-6.54.27-14.73.33-20.48.14l-1.77-.13V365a5,5,0,0,1,.53-2.76c.23-.32.9-.71,2.83-.76l1.42-.06v-3.05H182V361a17,17,0,0,1,4.34.45c.87.27,1.29,1.07,1.29,2.44v39.17c0,1.88-.15,2.76-.52,3a12.06,12.06,0,0,1-5.1.82v3h23.4v-2.88l-1.61-.17c-2.07-.23-3.16-.87-3.2-1.9V385h22.25v18.41a9.17,9.17,0,0,1-.16,1.7l0,.12c0,.31-.43.64-1.22.94a10.5,10.5,0,0,1-3.27.59h0v3.05H241Z" transform="translate(-181.97 -356.8)" style="fill:#2f2c83"/><path d="M324.05,406.09c-8.49,0-15.37-9.85-15.37-22s6.87-22,15.37-22,15.37,9.86,15.37,22-6.88,22-15.37,22m30.22-22.65c-.34-15-14.15-26.81-30.84-26.45s-29.94,12.78-29.6,27.74,14.15,26.81,30.84,26.45,29.94-12.78,29.6-27.75" transform="translate(-181.97 -356.8)" style="fill:#2f2c83"/><path d="M562.3,386.73v2.6a17.28,17.28,0,0,1,4.4.44c.65.2.89.55,1.14,1.67.07.94.12,2,.17,3.08v.89h0c0,1.45.06,2.9.06,4.14a6.52,6.52,0,0,1-5,6.52,9.75,9.75,0,0,1-1.12.25l-.89.08c-.27,0-1.84-.06-2-.08a12.44,12.44,0,0,1-4.37-.9,10.85,10.85,0,0,1-3.43-2.16c-4.57-3.81-7.65-10.9-7.65-19,0-10.32,5-19,11.65-21.35a24.08,24.08,0,0,1,4.2-1.11c.27-.05.54-.06.81-.11,6.24-.65,10.16,1.3,12.35,3l.14.11a1.32,1.32,0,0,1,.16.13l.07.06a13.27,13.27,0,0,1,3.66,6.16l.48,1.78,1.28,0a2.21,2.21,0,0,0,.72,0l1.19,0V357.84h-2.8v.06c-.37.11-1.26,1.54-1.26,1.54s-.53.9-1,.9a9.38,9.38,0,0,1-2.37-.56c-.41-.13-.81-.25-1.2-.36l-.25-.06A32.23,32.23,0,0,0,561,357.49c-9.37,0-18.25,2.83-23.75,7.56a24.09,24.09,0,0,0-8.81,19c0,7.74,3.29,15.3,8.6,19.76s14,7.2,23,7.2A45.06,45.06,0,0,0,581,405.2l.17-.1v-4.87c0-1.26,0-3.06,0-4.83v-.59c0-.89,0-1.75,0-2.49a3.72,3.72,0,0,1,.5-1.76c.23-.31.92-.69,2.87-.75l1.45-.06v-3Z" transform="translate(-181.97 -356.8)" style="fill:#2f2c83"/></svg>